<?xml version="1.0" standalone="no"?>
<!DOCTYPE svg PUBLIC "-//W3C//DTD SVG 20010904//EN"
 "http://www.w3.org/TR/2001/REC-SVG-20010904/DTD/svg10.dtd">
<svg version="1.0" xmlns="http://www.w3.org/2000/svg"
 width="275.000000pt" height="275.000000pt" viewBox="0 0 275.000000 275.000000"
 preserveAspectRatio="xMidYMid meet">
<metadata>
Created by potrace 1.11, written by Peter Selinger 2001-2013
</metadata>
<g transform="translate(0.000000,275.000000) scale(0.100000,-0.100000)"
fill="#000000" stroke="none">
<path d="M320 1962 c0 -27 13 -37 163 -128 89 -54 216 -131 282 -172 l120 -73
-337 3 c-185 1 -340 0 -344 -4 -39 -40 159 -77 941 -179 77 -10 149 -21 160
-23 11 -3 54 -30 95 -61 83 -62 87 -69 147 -244 38 -114 76 -179 167 -286 64
-76 146 -129 263 -170 82 -28 174 -19 238 25 58 40 88 120 78 209 -5 54 -11
68 -44 104 -21 23 -41 54 -44 69 -9 40 -31 52 -94 53 -48 0 -71 8 -166 57
-202 103 -231 121 -247 147 -8 14 -25 42 -37 63 l-22 36 61 37 62 37 191 -21
c289 -31 332 -34 406 -21 63 10 72 15 119 63 54 55 60 71 63 169 2 46 -3 70
-22 108 -21 42 -33 53 -99 86 -74 38 -76 38 -180 36 -69 -2 -143 -12 -215 -29
-109 -25 -112 -27 -283 -140 -171 -114 -258 -158 -291 -149 -9 3 -52 8 -96 12
-82 6 -156 36 -855 351 -77 35 -115 49 -152 57 -26 6 -28 4 -28 -22z m2057
-192 c50 -50 62 -68 72 -114 l12 -56 -47 -45 c-44 -41 -53 -45 -99 -45 -27 0
-66 5 -85 11 -19 6 -87 13 -150 14 -152 3 -191 14 -214 61 -12 27 -15 48 -10
80 6 41 11 47 66 80 88 51 174 72 294 73 l102 1 59 -60z m-448 -724 c63 -36
131 -68 152 -71 25 -4 51 -19 74 -42 33 -33 35 -39 35 -97 0 -55 -3 -65 -28
-89 -15 -15 -51 -34 -78 -42 -46 -13 -56 -13 -117 4 -124 36 -223 106 -282
200 -25 41 -26 47 -15 85 7 23 21 58 33 79 19 34 24 37 66 37 38 0 66 -11 160
-64z"/>
</g>
</svg>
